# xmcd CD database file
# Copyright (C) 1997 Ti Kan
# 
# Track frame offsets:
#     150
#     29823
#     35545
#     59233
#     81198
#     103745
# 
# Disc length: 1704 seconds
# 
# Revision: 1
# Processed by: cddbd v1.4b41PL1 Copyright (c) Steve Scherf et al.
# Submitted via: DiscPlay 4.0.4
# 
DISCID=5506a606
DTITLE=Diversos - Brasil
DYEAR=1900
DGENRE=
TTITLE0=Aquarela Do Brasil
TTITLE1=Cordeiro De Nan 
TTITLE2=Bahia Com H
TTITLE3=No Tabuleiro Da Baiana
TTITLE4=Milagre
TTITLE5=Disse Algu m (All Of Me)
EXTD=
EXTT0=
EXTT1=
EXTT2=
EXTT3=
EXTT4=
EXTT5=
PLAYORDER=
